# xmcd CD database file
# Copyright (C) 1997 Ti Kan
# 
# Track frame offsets:
#     150
#     8985
#     17320
#     28590
#     41375
#     50320
#     62642
#     74470
#     84775
#     92327
#     102295
#     112497
#     120147
#     129182
#     139780
#     148967
# 
# Disc length: 2087 seconds
# 
# Revision: 1
# Processed by: cddbd v1.4b41PL1 Copyright (c) Steve Scherf et al.
# Submitted via: DiscPlay 4.0.3
# 
DISCID=c8082510
DTITLE=Jim Reeves - He'll Have To Go - Live
DYEAR=1900
DGENRE=
TTITLE0=Yonder Comes A Sucker
TTITLE1=Waiting For A Train
TTITLE2=Am I Losing you
TTITLE3=When God Dips His Love In My Heart
TTITLE4=According To My Heart
TTITLE5=Four Walls
TTITLE6=Mexican Joe
TTITLE7=Anna Marie
TTITLE8=Blue Boy
TTITLE9=Softly and Tenderly
TTITLE10=He'll Have To Go
TTITLE11=Bimbo
TTITLE12=I'd Like To Be
TTITLE13=Peace In The Valley
TTITLE14=Billy Bayou
TTITLE15=In A Mansion Stands My Love
EXTD=
EXTT0=
EXTT1=
EXTT2=
EXTT3=
EXTT4=
EXTT5=
EXTT6=
EXTT7=
EXTT8=
EXTT9=
EXTT10=
EXTT11=
EXTT12=
EXTT13=
EXTT14=
EXTT15=
PLAYORDER=
